<?xml version="1.0" standalone="no"?>
<!DOCTYPE svg PUBLIC "-//W3C//DTD SVG 20010904//EN"
 "http://www.w3.org/TR/2001/REC-SVG-20010904/DTD/svg10.dtd">
<svg version="1.0" xmlns="http://www.w3.org/2000/svg"
 width="348.000000pt" height="219.000000pt" viewBox="0 0 348.000000 219.000000"
 preserveAspectRatio="xMidYMid meet">

<g transform="translate(0.000000,219.000000) scale(0.100000,-0.100000)"
fill="#000000" stroke="none">
<path d="M1593 2090 c-147 -73 -237 -256 -218 -440 4 -35 11 -75 16 -87 8 -22
4 -26 -54 -53 -34 -17 -74 -30 -89 -30 -27 0 -27 1 -21 50 3 29 2 50 -4 50
-10 0 -105 -31 -112 -36 -2 -2 9 -20 24 -40 l28 -37 -25 6 c-30 8 -38 -5 -38
-64 l0 -39 41 0 c34 0 40 -3 35 -16 -3 -9 -9 -27 -12 -41 -7 -28 -7 -28 99 -7
33 7 33 4 2 -71 -39 -94 -37 -99 48 -123 115 -34 158 -41 299 -51 211 -15 429
5 581 55 46 15 48 17 42 47 -14 73 -83 193 -149 257 -63 63 -64 64 -51 94 8
17 16 39 19 49 5 17 9 16 48 -8 24 -15 62 -35 86 -46 23 -11 42 -22 42 -25 0
-3 -14 -26 -31 -50 -17 -25 -29 -47 -27 -49 1 -1 32 -6 67 -10 64 -7 64 -7 57
16 -4 13 -9 38 -12 55 l-6 31 57 -5 c52 -4 57 -3 52 14 -4 11 -9 31 -12 46 -6
24 -11 26 -36 21 -36 -7 -37 3 -3 38 l27 28 -59 17 c-33 9 -63 18 -69 20 -6 3
-9 -17 -7 -51 l4 -54 -54 15 c-108 32 -103 25 -103 166 0 115 -2 127 -29 186
-80 174 -290 253 -453 172z m50 -355 c39 -49 86 -82 157 -110 l63 -25 -52 50
c-28 27 -51 53 -51 59 0 5 33 -5 73 -24 39 -18 91 -38 115 -44 50 -14 53 -31
18 -107 -99 -212 -325 -242 -451 -60 -34 50 -65 136 -65 183 0 16 11 25 44 38
24 9 59 30 78 46 18 15 35 28 38 29 3 0 17 -16 33 -35z m-264 -322 c-31 -32
-61 -67 -67 -78 -12 -19 -13 -19 -37 10 -14 17 -25 35 -25 40 0 6 23 21 51 35
29 14 65 35 82 48 20 14 34 19 41 12 6 -6 -10 -30 -45 -67z"/>
<path d="M1690 851 c-139 -46 -224 -158 -224 -296 1 -85 25 -144 83 -208 58
-63 126 -90 221 -90 77 0 140 22 198 70 l24 18 -21 19 c-21 19 -22 19 -45 -3
-28 -26 -115 -61 -154 -61 -51 0 -127 29 -169 65 -148 126 -97 374 88 429 85
25 145 17 213 -29 42 -29 59 -31 75 -11 10 11 5 19 -21 39 -61 45 -101 60
-173 63 -38 2 -81 0 -95 -5z"/>
<path d="M120 555 l0 -295 194 0 c183 0 194 1 199 19 3 11 2 22 -1 25 -3 3
-79 6 -169 6 l-163 0 0 110 0 110 105 0 105 0 0 25 0 25 -105 0 -105 0 0 110
0 110 168 2 c165 3 167 3 170 26 l3 22 -200 0 -201 0 0 -295z"/>
<path d="M890 724 c0 -116 -1 -126 -17 -121 -86 28 -102 30 -142 19 -84 -26
-131 -90 -131 -181 0 -63 13 -98 53 -139 52 -53 135 -64 208 -26 23 12 28 12
33 -1 3 -8 15 -15 26 -15 20 0 20 5 20 295 l0 295 -25 0 -25 0 0 -126z m-35
-161 l35 -17 0 -106 0 -107 -40 -18 c-57 -26 -123 -16 -163 24 -27 26 -32 39
-35 96 -4 65 -4 65 36 105 35 35 45 40 85 40 26 0 62 -8 82 -17z"/>
<path d="M2090 555 l0 -295 25 0 24 0 3 133 3 132 190 0 190 0 3 -132 3 -133
24 0 25 0 0 295 0 295 -25 0 -25 0 0 -135 0 -135 -195 0 -195 0 0 135 0 135
-25 0 -25 0 0 -295z"/>
<path d="M2704 835 c-8 -19 3 -35 26 -35 19 0 30 17 23 38 -6 17 -42 15 -49
-3z"/>
<path d="M2872 558 l3 -293 23 -3 22 -3 0 295 0 296 -25 0 -25 0 2 -292z"/>
<path d="M3310 724 l0 -126 -22 7 c-86 26 -100 27 -138 16 -83 -25 -130 -90
-130 -180 0 -63 13 -98 53 -139 52 -53 135 -64 208 -26 23 12 28 12 33 -1 3
-8 15 -15 26 -15 20 0 20 5 20 295 l0 295 -25 0 -25 0 0 -126z m-35 -161 l35
-17 0 -107 0 -107 -40 -16 c-112 -45 -201 10 -202 123 0 114 100 175 207 124z"/>
<path d="M1039 623 c0 -4 0 -68 1 -142 1 -96 6 -143 16 -163 33 -64 145 -82
227 -35 l46 25 3 -22 c2 -13 11 -22 26 -24 l22 -3 0 185 0 186 -25 0 -25 0 0
-133 c0 -147 0 -147 -67 -181 -36 -18 -105 -21 -133 -6 -35 19 -44 52 -50 185
-4 113 -7 130 -22 133 -10 2 -18 0 -19 -5z"/>
<path d="M2704 617 c-2 -7 -3 -89 -2 -182 3 -168 3 -170 26 -173 l22 -3 0 185
c0 180 -1 186 -20 186 -11 0 -23 -6 -26 -13z"/>
</g>
</svg>
